<svg width="89" height="20" viewBox="0 0 89 20" fill="none" xmlns="http://www.w3.org/2000/svg">
    <g clip-path="url(#clip0_278_1908)">
        <path fill-rule="evenodd" clip-rule="evenodd"
              d="M69.4694 4.82761C70.4799 4.82761 71.4298 5.32736 71.8744 5.86803V1.06415H74.3V14.7761H71.8744V13.7751C71.5911 14.2756 70.7018 14.9359 69.4694 14.9359C66.4976 14.9359 64.9818 12.9141 64.9818 9.91245C64.9818 6.89035 66.4976 4.82761 69.4694 4.82761ZM69.8125 12.8535C71.0662 12.8535 72.0767 11.8131 72.0767 9.8912C72.0767 7.94966 71.0662 6.92891 69.8125 6.92891C68.5596 6.92891 67.5491 7.97012 67.5491 9.8912C67.5286 11.8327 68.5391 12.8535 69.8125 12.8535ZM0.378162 7.54986C0.700834 5.9483 2.11587 4.82682 4.13769 4.82682C6.48296 4.82682 8.28127 5.78775 8.28127 8.93027V14.7352H6.30038L6.05798 13.4941C5.37092 14.3346 4.44068 14.895 3.02565 14.895C1.34854 14.895 0.0342407 13.8553 0.0342407 11.9327C0.0342407 10.0116 1.77274 8.75083 4.23842 8.75083H5.87539V8.31011C5.87539 7.20909 5.04746 6.8691 4.13769 6.8691C3.45063 6.8691 2.74311 7.08946 2.43933 7.98979L0.377375 7.54907L0.378162 7.54986ZM3.57183 12.8543C4.68308 12.8543 5.83604 12.1129 5.83604 10.8521V10.6719H4.21875C3.16731 10.6326 2.54085 11.052 2.54085 11.8926C2.56131 12.353 2.90445 12.8535 3.57183 12.8535V12.8543ZM47.6583 7.54986C47.981 5.9483 49.3968 4.82682 51.4178 4.82682C53.7631 4.82682 55.5622 5.78775 55.5622 8.93027V14.7352H53.5813L53.3381 13.4941C52.6511 14.3346 51.7216 14.895 50.3066 14.895C48.6287 14.895 47.3144 13.8546 47.3144 11.9327C47.3144 10.0116 49.0536 8.75083 51.5193 8.75083H53.1563V8.31011C53.1563 7.20909 52.3276 6.8691 51.4178 6.8691C50.7308 6.8691 50.0232 7.08946 49.7202 7.98979L47.6583 7.54986ZM50.852 12.8543C51.964 12.8543 53.1162 12.1129 53.1162 10.8521V10.6719H51.4989C50.4482 10.6719 49.821 11.052 49.821 11.913C49.8414 12.3537 50.1854 12.8535 50.852 12.8535V12.8543Z"
              fill="#AEAEB2" fill-opacity="0.5"/>
        <path d="M57.765 4.96774V14.7549L60.1905 14.7156V11.2528C60.1905 8.11025 61.4238 6.94942 62.8388 6.94942C63.2433 6.94942 63.5668 7.04937 63.8493 7.22959L64.294 5.00788C63.9083 4.8862 63.5061 4.82514 63.1017 4.82687C61.9896 4.82687 60.8784 5.40768 60.1905 6.56851V4.96774H57.765ZM81.6176 7.70888L83.0727 6.38828C82.4667 5.44781 81.2941 4.78752 80.0003 4.80719C78.08 4.80719 76.8467 6.14825 76.8467 7.64985C76.8467 9.15067 77.7565 9.83143 78.8284 10.2714C79.1157 10.3902 79.4053 10.4909 79.6807 10.5862C80.5645 10.8931 81.2941 11.1465 81.2941 11.773C81.2941 12.4931 80.8093 12.8339 80.0609 12.8339C79.0913 12.8339 78.4239 12.1531 78.08 11.2126L76.1597 12.253C76.6452 13.4336 78.0398 14.8753 80.0813 14.8753C82.2243 14.8753 83.5788 13.4139 83.5788 11.6329C83.5788 9.81569 81.9324 9.2703 80.611 8.83272L80.6031 8.83036C80.3985 8.76268 80.2025 8.69657 80.0207 8.63046C79.4147 8.42978 79.0708 8.12993 79.0708 7.6892C79.0708 7.14932 79.5155 6.86914 79.9806 6.86914C80.5055 6.86914 81.1729 7.10839 81.6176 7.70888ZM32.5179 4.98742L30.7794 11.6927L29.1015 4.98742H26.8381L25.1806 11.6927L23.8057 7.78915L23.6444 8.27001L22.8558 10.7727L24.1087 14.7549H26.2722L27.9698 8.45024L29.6681 14.7549H31.8104L34.9639 4.9882L32.5179 4.98742ZM42.4837 11.6927L44.2419 4.98742H46.6879L43.5147 14.7549H41.3717L39.6741 8.45024L37.9757 14.7549H35.8327L34.5594 10.7727L35.3479 8.27001L35.5101 7.78994L36.9046 11.6927L38.5416 4.98742H40.8058L42.4837 11.6927ZM23.2603 4.98742L20.1068 14.7353H17.9638L16.2662 8.42978L14.5679 14.7754H12.4256L9.27209 5.02755H11.7378L13.4967 11.7124L15.1746 5.02755H17.4176L19.0963 11.7124L20.8545 5.02755L23.2603 4.98742ZM88.3693 13.2337C88.3693 12.2932 87.6822 11.6124 86.7315 11.6124C85.8021 11.6124 85.0945 12.2932 85.0945 13.2337C85.0945 14.1749 85.7816 14.8549 86.7315 14.8549C87.6822 14.8549 88.3693 14.1749 88.3693 13.2337Z"
              fill="#AEAEB2" fill-opacity="0.5"/>
    </g>
    <defs>
        <clipPath id="clip0_278_1908">
            <rect width="88.9844" height="14.9531" fill="white" transform="translate(0.0078125 0.515625)"/>
        </clipPath>
    </defs>
</svg>
