<svg width="30" height="31" viewBox="0 0 30 31" fill="none" xmlns="http://www.w3.org/2000/svg">
    <rect y="0.736328" width="30" height="30" rx="11" fill="white"/>
    <path d="M11.4143 9.79291C11.9842 9.79291 12.5108 9.83347 12.9939 9.95514C13.477 10.0363 13.8732 10.2036 14.2261 10.4063C14.5789 10.6091 14.8394 10.8981 15.0186 11.2682C15.1923 11.6383 15.2845 12.0895 15.2845 12.5813C15.2845 13.1542 15.1543 13.6459 14.8449 14.016C14.5789 14.3861 14.1446 14.7156 13.6127 14.959C14.3618 15.1618 14.9317 15.5319 15.2791 16.0236C15.6265 16.5154 15.8491 17.1288 15.8491 17.8285C15.8491 18.4013 15.7188 18.8931 15.4962 19.3038C15.2791 19.7144 14.9263 20.0845 14.53 20.3279C14.1338 20.5763 13.6507 20.7791 13.1241 20.9007C12.5976 21.0224 12.0711 21.1035 11.5445 21.1035L5.6604 21.1137V9.79291H11.4143ZM11.0614 14.3861C11.5445 14.3861 11.9408 14.2644 12.2448 14.0566C12.5488 13.8487 12.6845 13.4837 12.6845 13.0325C12.6845 12.7841 12.641 12.5407 12.5542 12.3785C12.4673 12.2162 12.3371 12.0895 12.1579 11.9678C11.9842 11.8867 11.8051 11.8056 11.588 11.765C11.3708 11.7245 11.1483 11.7245 10.8877 11.7245H8.34192V14.3912C8.34192 14.3861 11.0614 14.3861 11.0614 14.3861ZM11.1917 19.2277C11.4577 19.2277 11.7182 19.1872 11.9408 19.1466C12.1579 19.106 12.3805 19.0249 12.5542 18.8982C12.7279 18.7714 12.8636 18.6498 12.9939 18.447C13.0807 18.2442 13.1676 17.9958 13.1676 17.7068C13.1676 17.1339 12.9939 16.7233 12.641 16.4343C12.2882 16.1859 11.8051 16.0642 11.2351 16.0642H8.34192V19.2226H11.1917V19.2277Z"
          fill="black"/>
    <path d="M19.6602 19.4834C19.981 19.8109 20.4595 19.972 21.096 19.972C21.5351 19.972 21.9348 19.8512 22.2555 19.6446C22.5762 19.3978 22.7735 19.156 22.8525 18.9092H24.8063C24.4856 19.8864 24.007 20.5816 23.3705 21.0299C22.7341 21.4379 21.9742 21.6797 21.0565 21.6797C20.4201 21.6797 19.8576 21.5588 19.3395 21.3523C18.8215 21.1508 18.4218 20.8637 18.0617 20.4556C17.7015 20.0879 17.4252 19.6396 17.2624 19.1107C17.065 18.5817 16.9811 18.0125 16.9811 17.3577C16.9811 16.7482 17.0601 16.1739 17.2624 15.645C17.4647 15.1161 17.741 14.6677 18.1011 14.2597C18.4613 13.892 18.9004 13.5646 19.379 13.3631C19.8971 13.1616 20.4151 13.0356 21.0565 13.0356C21.7374 13.0356 22.3344 13.1565 22.8525 13.4437C23.3705 13.7308 23.7702 14.0532 24.0909 14.5418C24.4116 14.9901 24.6484 15.519 24.8112 16.0883C24.8902 16.6575 24.9297 17.2317 24.8902 17.8816H19.1027C19.1027 18.5465 19.3395 19.156 19.6602 19.4834ZM22.1765 15.2017C21.8953 14.9146 21.4562 14.7534 20.9381 14.7534C20.578 14.7534 20.3017 14.834 20.0599 14.9549C19.8181 15.0758 19.6602 15.242 19.5024 15.4032C19.3445 15.5644 19.2606 15.7709 19.2211 15.9724C19.1817 16.1739 19.1422 16.3401 19.1422 16.5013H22.7341C22.6551 15.8968 22.4528 15.4888 22.1765 15.2017ZM18.6636 10.925H23.1337V12.0231H18.6636V10.925Z"
          fill="black"/>
</svg>
