<svg width="202" height="57" viewBox="0 0 202 57" fill="none" xmlns="http://www.w3.org/2000/svg">
    <path d="M11.1486 45.573V27.241C12.3872 25.7544 15.4209 25.1358 17.774 25.1358C18.8326 25.1358 19.7566 25.2599 20.3146 25.4383V14.7933C16.9074 14.7933 13.0057 16.7744 11.1486 18.9415V15.6598H0V45.573H11.1486Z"
          fill="#1D1D1F"/>
    <path d="M39.368 46.317C43.8262 46.317 49.1525 45.1404 52.1257 42.6013L47.5434 35.7264C46.0568 37.027 42.3411 37.8315 40.6685 37.8315C37.0148 37.8315 34.8462 35.9744 34.2277 34.0508H54.5408V31.7581C54.5408 21.2296 47.7899 14.9127 38.9959 14.9127C29.3339 14.9127 22.707 21.9101 22.707 30.5816C22.707 40.4327 30.0159 46.317 39.368 46.317ZM43.9502 26.9929H34.1037C34.4742 25.6319 35.5903 23.4012 38.9959 23.4012C42.5876 23.4012 43.6417 25.6923 43.9502 26.9929Z"
          fill="#1D1D1F"/>
    <path d="M58.1758 16.1498V25.5835H77.0689V16.1498H58.1758ZM76.8239 0.151251C75.9621 0.038089 75.0933 -0.0124532 74.2242 2.14153e-05C70.7399 2.14153e-05 67.8368 1.10904 65.5149 3.32707C63.1961 5.52493 62.0367 8.82123 62.0367 13.216V45.579H73.2276V19.1426L73.1021 18.7192V14.8795C73.1021 13.1252 73.3965 11.8347 73.9853 11.008C74.2466 10.6176 74.6021 10.2993 75.0189 10.0826C75.4358 9.86586 75.9005 9.75764 76.3702 9.76792C76.7845 9.75937 77.1986 9.78975 77.6072 9.85866C77.9097 9.91915 78.5146 10.0583 78.8171 10.1188V0.544447C78.1648 0.383136 77.5004 0.25207 76.8239 0.151251Z"
          fill="#1D1D1F"/>
    <path d="M93.4514 0.635193H82.3027V45.573H93.4514V0.635193Z" fill="#1D1D1F"/>
    <path d="M115.421 46.317C119.881 46.317 125.207 45.1404 128.18 42.6013L123.597 35.7264C122.11 37.027 118.394 37.8315 116.722 37.8315C113.068 37.8315 110.901 35.9744 110.281 34.0508H130.595V31.7581C130.595 21.2296 123.845 14.9127 115.051 14.9127C105.389 14.9127 98.7617 21.9101 98.7617 30.5816C98.7617 40.4327 106.069 46.317 115.421 46.317ZM120.005 26.9929H110.157C110.529 25.6319 111.643 23.4012 115.051 23.4012C118.642 23.4012 119.695 25.6923 120.005 26.9929Z"
          fill="#1D1D1F"/>
    <path d="M149.668 46.317C154.128 46.317 159.454 45.1404 162.428 42.6013L157.844 35.7264C156.357 37.027 152.641 37.8315 150.969 37.8315C147.315 37.8315 145.148 35.9744 144.528 34.0508H164.84V31.7581C164.84 21.2296 158.089 14.9127 149.295 14.9127C139.633 14.9127 133.006 21.9101 133.006 30.5816C133.009 40.4327 140.316 46.317 149.668 46.317ZM154.254 26.9929H144.404C144.776 25.6319 145.891 23.4012 149.298 23.4012C152.893 23.4012 153.942 25.6923 154.254 26.9929Z"
          fill="#1D1D1F"/>
    <path d="M188.869 46.317C196.301 46.317 201.999 40.8728 201.999 30.5892C201.999 20.3691 196.301 14.9203 188.869 14.9203C185.772 14.9203 182.861 15.9789 180.446 18.822V15.6598H169.299V56.9696H180.446V42.4153C182.923 45.2645 185.772 46.317 188.869 46.317ZM185.03 36.469C183.605 36.469 181.436 35.6644 180.446 34.4258V26.8069C181.505 25.5063 183.605 24.7638 185.03 24.7638C188.001 24.7638 190.604 26.8689 190.604 30.5861C190.604 34.3638 188.001 36.469 185.03 36.469Z"
          fill="#1D1D1F"/>
</svg>
