<svg width="18" height="18" viewBox="0 0 18 18" fill="none" xmlns="http://www.w3.org/2000/svg">
<path d="M2.75 12.75C2.75 12.0596 2.19036 11.5 1.5 11.5C0.809644 11.5 0.25 12.0596 0.25 12.75V14.625C0.25 16.3509 1.64911 17.75 3.375 17.75H5.25C5.94036 17.75 6.5 17.1904 6.5 16.5C6.5 15.8096 5.94036 15.25 5.25 15.25H4.625C3.58947 15.25 2.75 14.4105 2.75 13.375V12.75ZM0.25 5.25C0.25 5.94036 0.809644 6.5 1.5 6.5C2.19036 6.5 2.75 5.94036 2.75 5.25V4.625C2.75 3.58947 3.58947 2.75 4.625 2.75H5.25C5.94036 2.75 6.5 2.19036 6.5 1.5C6.5 0.809644 5.94036 0.25 5.25 0.25H3.375C1.64911 0.25 0.25 1.64911 0.25 3.375V5.25ZM15.25 13.375C15.25 14.4105 14.4105 15.25 13.375 15.25H12.75C12.0596 15.25 11.5 15.8096 11.5 16.5C11.5 17.1904 12.0596 17.75 12.75 17.75H14.625C16.3509 17.75 17.75 16.3509 17.75 14.625V12.75C17.75 12.0596 17.1904 11.5 16.5 11.5C15.8096 11.5 15.25 12.0596 15.25 12.75V13.375ZM12.75 0.25C12.0596 0.25 11.5 0.809644 11.5 1.5C11.5 2.19036 12.0596 2.75 12.75 2.75H13.375C14.4105 2.75 15.25 3.58947 15.25 4.625V5.25C15.25 5.94036 15.8096 6.5 16.5 6.5C17.1904 6.5 17.75 5.94036 17.75 5.25V3.375C17.75 1.64911 16.3509 0.25 14.625 0.25H12.75Z" fill="white" fill-opacity="0.8"/>
</svg>
