<svg width="45" height="21" viewBox="0 0 45 21" fill="none" xmlns="http://www.w3.org/2000/svg">
    <g clip-path="url(#clip0_278_1935)">
        <path d="M38.358 3.91001C38.5287 3.91001 38.6876 3.94935 38.8221 4.04375C39.1266 4.21919 39.3217 4.58266 39.3217 4.98546V8.01276H41.9808C42.5182 8.01276 42.9453 8.48321 42.9453 9.07483C42.9453 9.66723 42.5182 10.1377 41.9816 10.1377H39.3225V13.0171C39.3225 13.6087 38.8945 14.0792 38.358 14.0792H30.9526C30.416 14.0792 29.9888 13.6087 29.9888 13.0171V9.02133C30.0132 8.45647 30.4404 7.9986 30.9526 7.9986H37.3942V6.03573H29.9645L26.4392 13.2594C26.3778 13.5819 26.1953 13.8652 25.9144 14.0131C25.7862 14.08 25.6444 14.1169 25.4998 14.1208C25.1702 14.1208 24.8406 13.932 24.6698 13.5961C24.6342 13.5367 24.6057 13.4734 24.5849 13.4073L21.803 7.38102L18.985 13.2736C18.8631 13.5827 18.6797 13.8652 18.3997 14.0264C18.2715 14.0934 18.1297 14.1303 17.9851 14.1342C17.6546 14.1342 17.3258 13.9454 17.1551 13.6095C17.1192 13.5502 17.0907 13.4868 17.0701 13.4207L13.6652 6.06248H7.98036V8.02692H12.5795C13.1161 8.02692 13.5433 8.49738 13.5433 9.08899C13.5433 9.68139 13.1161 10.1518 12.5795 10.1518H7.98036V13.0847C7.98036 13.6764 7.55317 14.1468 7.01662 14.1468C6.47929 14.1468 6.05289 13.6764 6.05289 13.0847V10.1518H3.345C2.80846 10.1518 2.38127 9.68139 2.38127 9.08978C2.38127 8.49738 2.80846 8.02692 3.345 8.02692H6.00412V4.99962C6.00412 4.59603 6.21181 4.24594 6.50447 4.05791C6.639 3.97688 6.79792 3.92339 6.96863 3.92339H14.1781C14.3371 3.92339 14.4834 3.96351 14.6179 4.04454C14.8248 4.13895 14.9955 4.3136 15.0931 4.55591L17.9481 10.7301L20.8031 4.83755C20.9494 4.515 21.0226 4.21919 21.3396 4.05791C21.4679 3.99095 21.6097 3.95409 21.7542 3.95013C21.9981 3.95013 22.2302 4.04454 22.4009 4.23257C22.5717 4.38047 22.6574 4.48825 22.7786 4.74393L25.4754 10.7301L28.5012 4.54175C28.5746 4.39606 28.6836 4.2713 28.8182 4.17907C28.9889 4.03038 29.1958 3.93676 29.4397 3.93676H38.358M31.8801 11.9408H37.3942V10.1377H31.8793L31.8801 11.9408ZM38.358 1.7308H29.4405C28.7822 1.73698 28.1471 1.97485 27.6468 2.40266C27.2928 2.67171 27.0001 3.03518 26.7924 3.43877L26.7806 3.46551L26.768 3.49226L25.536 6.02157C25.536 6.02157 24.1089 2.9274 23.6817 2.55135C23.1452 2.03998 22.4623 1.75676 21.7542 1.75676C21.3072 1.75742 20.8673 1.86849 20.4735 2.0801C19.7048 2.48369 19.2777 3.23658 18.9236 4.11141L17.9969 6.02157L16.8624 3.5733C16.5698 2.91402 16.0694 2.37591 15.4597 2.06673C15.0656 1.85523 14.6254 1.74443 14.1781 1.74417H6.96863C6.48087 1.74417 5.9931 1.87791 5.56513 2.1336C4.61319 2.69925 4.02866 3.80144 4.02866 4.98546V5.83354H3.345C1.72279 5.83354 0.405029 7.28504 0.405029 9.07483C0.405029 10.8646 1.72279 12.3169 3.345 12.3169H4.02866V13.0706C4.02866 14.8596 5.34563 16.3119 6.96863 16.3119C8.59085 16.3119 9.90861 14.8596 9.90861 13.0706V12.3169H12.5189C13.0807 12.3169 13.6172 12.1422 14.0688 11.8331L15.2276 14.3348C15.289 14.4827 15.3496 14.6181 15.4227 14.7518C15.9593 15.7203 16.9112 16.3127 17.9355 16.3127C18.3753 16.3127 18.8143 16.2049 19.2171 15.9901C19.9739 15.5953 20.5629 14.9408 20.8763 14.1468L21.7181 12.0888L22.7668 14.3482C22.8281 14.4969 22.8887 14.6314 22.9619 14.7652C23.4992 15.7344 24.4503 16.326 25.4754 16.326C25.9144 16.326 26.3534 16.2182 26.7562 16.0035C27.4273 15.64 27.952 15.0075 28.2195 14.2546C28.6601 15.4378 29.7206 16.2717 30.9526 16.2717H38.358C39.981 16.2717 41.2979 14.873 41.2979 13.084V12.3303H41.9816C43.6038 12.3303 44.9216 10.878 44.9216 9.08899C44.9216 7.29999 43.6038 5.84692 41.9816 5.84692H41.2979V4.99962C41.2979 3.80223 40.7126 2.71262 39.7607 2.14776C39.3444 1.87372 38.8564 1.72867 38.358 1.7308Z"
              fill="#AEAEB2" fill-opacity="0.5"/>
    </g>
    <defs>
        <clipPath id="clip0_278_1935">
            <rect width="44.875" height="15.7344" fill="white" transform="translate(0.0625 1.125)"/>
        </clipPath>
    </defs>
</svg>
