<svg width="31" height="31" viewBox="0 0 31 31" fill="none" xmlns="http://www.w3.org/2000/svg">
<path d="M26.92 1.28997C25.5677 0.428371 23.9934 -0.0199477 22.39 -2.75527e-05C17.79 -2.75527e-05 13.19 -2.75527e-05 8.59 -2.75527e-05C6.90259 -0.035793 5.24438 0.443721 3.8365 1.37457C2.42861 2.30542 1.33797 3.64336 0.71 5.20997C0.39292 6.09714 0.155318 7.01073 0 7.93997L0 23.06C0.08 23.52 0.13 23.99 0.25 24.44C0.630215 26.0459 1.47182 27.5055 2.67117 28.6391C3.87052 29.7727 5.37523 30.5308 7 30.82C7.31 30.89 7.63 30.93 7.95 30.98H23.07C23.53 30.89 24.01 30.85 24.46 30.72C26.064 30.3485 27.5233 29.5132 28.656 28.3183C29.7887 27.1233 30.5447 25.6215 30.83 24C30.9458 23.4543 31.0028 22.8978 31 22.34C31 17.8 31 13.2633 31 8.72997C31.0364 7.24022 30.6781 5.76734 29.9616 4.46072C29.245 3.15409 28.1957 2.0602 26.92 1.28997ZM15.49 7.51997C17.0723 7.51997 18.619 7.98916 19.9346 8.86822C21.2502 9.74727 22.2755 10.9967 22.881 12.4585C23.4865 13.9203 23.645 15.5288 23.3363 17.0807C23.0276 18.6325 22.2657 20.058 21.1469 21.1768C20.028 22.2956 18.6026 23.0576 17.0507 23.3663C15.4989 23.6749 13.8903 23.5165 12.4285 22.911C10.9667 22.3055 9.71729 21.2801 8.83824 19.9645C7.95919 18.6489 7.49 17.1022 7.49 15.52C7.49 13.3982 8.33286 11.3634 9.83315 9.86312C11.3334 8.36283 13.3683 7.51997 15.49 7.51997ZM21.8 7.18997C21.8 6.79441 21.9173 6.40773 22.1371 6.07883C22.3568 5.74993 22.6692 5.49359 23.0346 5.34221C23.4001 5.19084 23.8022 5.15123 24.1902 5.2284C24.5781 5.30557 24.9345 5.49605 25.2142 5.77576C25.4939 6.05546 25.6844 6.41183 25.7616 6.79979C25.8387 7.18775 25.7991 7.58989 25.6478 7.95534C25.4964 8.32079 25.24 8.63315 24.9111 8.85291C24.5822 9.07267 24.1956 9.18997 23.8 9.18997C23.2696 9.18997 22.7609 8.97926 22.3858 8.60419C22.0107 8.22911 21.8 7.72041 21.8 7.18997Z" fill="white"/>
<path d="M15.49 20.72C16.5248 20.722 17.537 20.4169 18.3984 19.8435C19.2598 19.27 19.9317 18.4539 20.329 17.4984C20.7264 16.5429 20.8314 15.491 20.6307 14.4758C20.4301 13.4606 19.9328 12.5278 19.2017 11.7954C18.4707 11.063 17.5388 10.5639 16.524 10.3612C15.5092 10.1586 14.4571 10.2616 13.5009 10.6572C12.5447 11.0527 11.7273 11.723 11.1521 12.5833C10.577 13.4436 10.27 14.4552 10.27 15.49C10.27 16.8754 10.8197 18.2041 11.7983 19.1846C12.777 20.1652 14.1047 20.7174 15.49 20.72Z" fill="white"/>
</svg>
