<svg width="31" height="31" viewBox="0 0 31 31" fill="none" xmlns="http://www.w3.org/2000/svg">
    <path d="M15.3846 0.120926H9.23075C7.98891 0.112732 6.75853 0.358808 5.61537 0.844003C4.59877 1.25096 3.67893 1.86681 2.91537 2.65169C2.14779 3.43247 1.53449 4.35112 1.10767 5.35939C0.707267 6.52708 0.464105 7.74289 0.384597 8.97477V21.2825C0.376404 22.5243 0.622479 23.7547 1.10767 24.8978C1.51369 25.9172 2.12959 26.8397 2.91537 27.6055C3.69614 28.3731 4.61479 28.9864 5.62306 29.4132C6.79076 29.8136 8.00657 30.0568 9.23844 30.1363H21.5461C22.788 30.1445 24.0184 29.8984 25.1615 29.4132C26.1809 29.0072 27.1034 28.3913 27.8692 27.6055C28.6368 26.8248 29.2501 25.9061 29.6769 24.8978C30.0773 23.7302 30.3205 22.5143 30.4 21.2825V8.97477C30.4082 7.73293 30.1621 6.50255 29.6769 5.35939C29.2709 4.34004 28.655 3.4175 27.8692 2.65169C27.0839 1.88251 26.1599 1.26912 25.1461 0.844003C23.9784 0.443595 22.7626 0.200433 21.5308 0.120926H15.3846Z"
          fill="white"/>
    <path d="M15.3847 7.35177C13.8481 7.35177 12.346 7.80743 11.0684 8.66112C9.79072 9.51481 8.79491 10.7282 8.20688 12.1478C7.61884 13.5675 7.46499 15.1296 7.76477 16.6367C8.06454 18.1438 8.80449 19.5281 9.89104 20.6147C10.9776 21.7012 12.3619 22.4412 13.869 22.7409C15.3761 23.0407 16.9382 22.8869 18.3579 22.2988C19.7775 21.7108 20.9909 20.715 21.8446 19.4374C22.6983 18.1597 23.1539 16.6576 23.1539 15.121C23.1642 14.0979 22.9703 13.083 22.5835 12.1357C22.1967 11.1885 21.6248 10.3279 20.9013 9.6044C20.1778 8.88091 19.3172 8.30902 18.37 7.92222C17.4227 7.53542 16.4078 7.34148 15.3847 7.35177ZM15.3847 20.1825C14.3836 20.1825 13.405 19.8857 12.5727 19.3295C11.7403 18.7733 11.0916 17.9828 10.7085 17.058C10.3254 16.1331 10.2251 15.1154 10.4204 14.1335C10.6157 13.1517 11.0978 12.2498 11.8057 11.542C12.5135 10.8341 13.4154 10.352 14.3973 10.1567C15.3791 9.96142 16.3968 10.0617 17.3217 10.4447C18.2466 10.8278 19.0371 11.4766 19.5932 12.309C20.1494 13.1413 20.4463 14.1199 20.4463 15.121C20.4169 16.4542 19.8741 17.7246 18.9312 18.6675C17.9883 19.6104 16.7179 20.1531 15.3847 20.1825Z"
          fill="black"/>
    <path d="M23.3385 8.97482C23.696 8.97482 24.0455 8.8688 24.3428 8.67017C24.64 8.47154 24.8717 8.18922 25.0085 7.8589C25.1454 7.52859 25.1812 7.16512 25.1114 6.81447C25.0417 6.46381 24.8695 6.14171 24.6167 5.8889C24.3639 5.63609 24.0418 5.46392 23.6911 5.39417C23.3405 5.32442 22.977 5.36022 22.6467 5.49704C22.3164 5.63386 22.034 5.86556 21.8354 6.16283C21.6368 6.4601 21.5308 6.8096 21.5308 7.16713C21.5308 7.64656 21.7212 8.10635 22.0602 8.44536C22.3992 8.78437 22.859 8.97482 23.3385 8.97482Z"
          fill="black"/>
</svg>
