<svg width="9" height="15" viewBox="0 0 9 15" fill="none" xmlns="http://www.w3.org/2000/svg">
<path fill-rule="evenodd" clip-rule="evenodd" d="M8.28007 0.71995C8.13945 0.5795 7.94882 0.50061 7.75007 0.50061C7.55132 0.50061 7.3607 0.5795 7.22007 0.71995L0.970072 6.96995C0.829622 7.11058 0.750732 7.3012 0.750732 7.49995C0.750732 7.6987 0.829622 7.88932 0.970072 8.02995L7.22007 14.28C7.28873 14.3536 7.37153 14.4127 7.46353 14.4537C7.55553 14.4947 7.65485 14.5168 7.75555 14.5185C7.85625 14.5203 7.95628 14.5018 8.04967 14.4641C8.14306 14.4264 8.22789 14.3702 8.29911 14.299C8.37033 14.2278 8.42647 14.1429 8.4642 14.0495C8.50192 13.9562 8.52044 13.8561 8.51866 13.7554C8.51689 13.6547 8.49485 13.5554 8.45385 13.4634C8.41286 13.3714 8.35376 13.2886 8.28007 13.2199L2.56007 7.49995L8.28007 1.77995C8.42052 1.63933 8.49941 1.4487 8.49941 1.24995C8.49941 1.0512 8.42052 0.860576 8.28007 0.71995Z" fill="#8B949E"/>
</svg>
