<svg width="12" height="16" viewBox="0 0 12 16" fill="none" xmlns="http://www.w3.org/2000/svg">
<path fill-rule="evenodd" clip-rule="evenodd" d="M2 4.5V6.5H1.75C1.28587 6.5 0.840752 6.68437 0.512563 7.01256C0.184375 7.34075 0 7.78587 0 8.25V13.75C0 14.716 0.784 15.5 1.75 15.5H10.25C10.7141 15.5 11.1592 15.3156 11.4874 14.9874C11.8156 14.6592 12 14.2141 12 13.75V8.25C12 7.78587 11.8156 7.34075 11.4874 7.01256C11.1592 6.68437 10.7141 6.5 10.25 6.5H10V4.5C10 3.43913 9.57857 2.42172 8.82843 1.67157C8.07828 0.921427 7.06087 0.5 6 0.5C4.93913 0.5 3.92172 0.921427 3.17157 1.67157C2.42143 2.42172 2 3.43913 2 4.5ZM8.5 6.5V4.5C8.5 3.83696 8.23661 3.20107 7.76777 2.73223C7.29893 2.26339 6.66304 2 6 2C5.33696 2 4.70107 2.26339 4.23223 2.73223C3.76339 3.20107 3.5 3.83696 3.5 4.5V6.5H8.5ZM10 8H10.25C10.3163 8 10.3799 8.02634 10.4268 8.07322C10.4737 8.12011 10.5 8.1837 10.5 8.25V13.75C10.5 13.8163 10.4737 13.8799 10.4268 13.9268C10.3799 13.9737 10.3163 14 10.25 14H1.75C1.6837 14 1.62011 13.9737 1.57322 13.9268C1.52634 13.8799 1.5 13.8163 1.5 13.75V8.25C1.5 8.1837 1.52634 8.12011 1.57322 8.07322C1.62011 8.02634 1.6837 8 1.75 8H10Z" fill="#6E7681"/>
</svg>
