<svg width="304" height="86" viewBox="0 0 304 86" fill="none" xmlns="http://www.w3.org/2000/svg">
    <path d="M16.7781 68.5851V40.9963C18.6421 38.7591 23.2076 37.8282 26.749 37.8282C28.3421 37.8282 29.7327 38.0149 30.5725 38.2834V22.2632C25.4449 22.2632 19.573 25.2446 16.7781 28.506V23.5673H0V68.5851H16.7781Z"
          fill="white"/>
    <path d="M59.2469 69.7047C65.9563 69.7047 73.9722 67.9341 78.4466 64.1128L71.5506 53.7664C69.3133 55.7237 63.7214 56.9345 61.2042 56.9345C55.7056 56.9345 52.4419 54.1397 51.511 51.2447H82.0813V47.7944C82.0813 31.9494 71.9215 22.4429 58.687 22.4429C44.1461 22.4429 34.173 32.9736 34.173 46.0237C34.173 60.8491 45.1726 69.7047 59.2469 69.7047ZM66.143 40.623H51.3244C51.882 38.5746 53.5616 35.2176 58.687 35.2176C64.0924 35.2176 65.6787 38.6657 66.143 40.623Z"
          fill="white"/>
    <path d="M87.5526 24.3046V38.5018H115.986V24.3046H87.5526ZM115.617 0.227573C114.32 0.0572701 113.013 -0.0187935 111.705 -1.97426e-05C106.461 -1.97426e-05 102.092 1.66899 98.5977 5.00702C95.1079 8.3147 93.3631 13.2755 93.3631 19.8893V68.5941H110.205V28.8086L110.016 28.1714V22.3928C110.016 19.7527 110.459 17.8106 111.345 16.5664C111.738 15.9789 112.273 15.4999 112.901 15.1737C113.528 14.8476 114.227 14.6847 114.934 14.7002C115.558 14.6873 116.181 14.733 116.796 14.8367C117.251 14.9278 118.162 15.1372 118.617 15.2282V0.819313C117.635 0.576548 116.635 0.379301 115.617 0.227573Z"
          fill="white"/>
    <path d="M140.639 0.955933H123.86V68.5851H140.639V0.955933Z" fill="white"/>
    <path d="M173.703 69.7047C180.415 69.7047 188.431 67.9341 192.905 64.1128L186.007 53.7664C183.77 55.7237 178.178 56.9345 175.66 56.9345C170.162 56.9345 166.9 54.1397 165.967 51.2447H196.54V47.7944C196.54 31.9494 186.38 22.4429 173.146 22.4429C158.605 22.4429 148.632 32.9736 148.632 46.0237C148.632 60.8491 159.629 69.7047 173.703 69.7047ZM180.602 40.623H165.781C166.341 38.5746 168.018 35.2176 173.146 35.2176C178.551 35.2176 180.135 38.6657 180.602 40.623Z"
          fill="white"/>
    <path d="M225.244 69.7047C231.956 69.7047 239.971 67.9341 244.446 64.1128L237.548 53.7664C235.31 55.7237 229.718 56.9345 227.201 56.9345C221.703 56.9345 218.441 54.1397 217.508 51.2447H248.076V47.7944C248.076 31.9494 237.916 22.4429 224.682 22.4429C210.141 22.4429 200.168 32.9736 200.168 46.0237C200.172 60.8491 211.17 69.7047 225.244 69.7047ZM232.144 40.623H217.321C217.881 38.5746 219.559 35.2176 224.686 35.2176C230.096 35.2176 231.676 38.6657 232.144 40.623Z"
          fill="white"/>
    <path d="M284.24 69.7048C295.424 69.7048 304 61.5115 304 46.0352C304 30.6545 295.424 22.4543 284.24 22.4543C279.579 22.4543 275.198 24.0475 271.564 28.3262V23.5673H254.788V85.7365H271.564V63.833C275.292 68.1208 279.579 69.7048 284.24 69.7048ZM278.462 54.884C276.318 54.884 273.054 53.6732 271.564 51.8092V40.3431C273.157 38.3858 276.318 37.2683 278.462 37.2683C282.934 37.2683 286.851 40.4364 286.851 46.0307C286.851 51.7159 282.934 54.884 278.462 54.884Z"
          fill="white"/>
</svg>
