<svg width="19" height="19" viewBox="0 0 19 19" fill="none" xmlns="http://www.w3.org/2000/svg">
    <path d="M0.0546875 15.0098V18.9453H3.99023L15.5975 7.33807L11.6619 3.40253L0.0546875 15.0098ZM18.641 4.29459C18.7383 4.19749 18.8154 4.08217 18.8681 3.95521C18.9208 3.82825 18.9479 3.69215 18.9479 3.5547C18.9479 3.41725 18.9208 3.28115 18.8681 3.1542C18.8154 3.02724 18.7383 2.91191 18.641 2.81482L16.1852 0.359038C16.0881 0.261747 15.9728 0.184561 15.8458 0.131896C15.7188 0.0792319 15.5827 0.052124 15.4453 0.052124C15.3079 0.052124 15.1718 0.0792319 15.0448 0.131896C14.9178 0.184561 14.8025 0.261747 14.7054 0.359038L12.7849 2.27958L16.7204 6.21513L18.641 4.29459Z"
          fill="white"/>
</svg>
