<svg width="15" height="15" viewBox="0 0 15 15" fill="none" xmlns="http://www.w3.org/2000/svg">
<path fill-rule="evenodd" clip-rule="evenodd" d="M7.75 0C7.94891 0 8.13968 0.0790175 8.28033 0.21967C8.42098 0.360322 8.5 0.551088 8.5 0.75V6.5H14.25C14.4489 6.5 14.6397 6.57902 14.7803 6.71967C14.921 6.86032 15 7.05109 15 7.25C15 7.44891 14.921 7.63968 14.7803 7.78033C14.6397 7.92098 14.4489 8 14.25 8H8.5V13.75C8.5 13.9489 8.42098 14.1397 8.28033 14.2803C8.13968 14.421 7.94891 14.5 7.75 14.5C7.55109 14.5 7.36032 14.421 7.21967 14.2803C7.07902 14.1397 7 13.9489 7 13.75V8H1.25C1.05109 8 0.860322 7.92098 0.71967 7.78033C0.579018 7.63968 0.5 7.44891 0.5 7.25C0.5 7.05109 0.579018 6.86032 0.71967 6.71967C0.860322 6.57902 1.05109 6.5 1.25 6.5H7V0.75C7 0.551088 7.07902 0.360322 7.21967 0.21967C7.36032 0.0790175 7.55109 0 7.75 0Z" fill="#8B949E"/>
</svg>
