<svg width="26" height="45" viewBox="0 0 26 45" fill="none" xmlns="http://www.w3.org/2000/svg">
<g clip-path="url(#clip0_278_1913)">
<path d="M13.3488 2.42342C13.2362 2.79507 12.9811 3.19505 12.6126 3.60055C12.2425 4.00999 11.7583 4.42336 11.1953 4.81626C10.5952 5.23158 9.96186 5.59659 9.30166 5.90757C8.61498 6.23461 7.90165 6.50251 7.16944 6.70833C6.44899 6.90832 5.79941 7.0154 5.24352 7.03903C4.69236 7.06107 4.23332 7.00044 3.88923 6.86738C3.54909 6.7351 3.31917 6.53117 3.21996 6.26503C3.12075 6.00205 3.14831 5.67844 3.3176 5.30286C3.36956 5.18869 3.43255 5.07452 3.50657 4.9572C3.57979 4.84224 3.66404 4.72493 3.75695 4.60839C3.96105 4.35862 4.18401 4.12487 4.42386 3.9092L4.76716 3.60843L5.10573 3.33599L5.42619 3.09584L5.74508 2.87223L6.0616 2.66751L6.36711 2.48169L6.66946 2.31004C6.66946 2.31004 6.05531 2.77932 5.75295 3.16041C5.70029 3.22692 5.64884 3.29438 5.59863 3.36276C5.50739 3.48098 5.42974 3.60908 5.36714 3.74464C5.2884 3.92889 5.28053 4.08479 5.33722 4.20998C5.35596 4.25194 5.3815 4.29052 5.41281 4.32415C5.45173 4.3648 5.4966 4.39931 5.54587 4.42651C5.5876 4.45013 5.63485 4.4706 5.68681 4.48793C5.86161 4.54777 6.09074 4.5706 6.36396 4.55328C6.68426 4.52949 7.00105 4.47115 7.30881 4.37927C7.65998 4.27848 8.01194 4.14305 8.34421 3.98558C8.67727 3.8281 8.98986 3.64858 9.26859 3.45804C9.54496 3.26907 9.78668 3.06907 9.97329 2.87065C10.1599 2.67381 10.2938 2.47697 10.3591 2.29587C10.4221 2.11399 10.4126 1.96281 10.341 1.8447C10.2693 1.72738 10.1363 1.64235 9.95203 1.59274C9.76936 1.54392 9.54417 1.55495 9.27646 1.60613C9.19379 1.62188 9.10718 1.63447 9.01584 1.64786C8.819 1.67699 8.60325 1.70927 8.37177 1.77699C8.21624 1.82254 8.06372 1.87776 7.91509 1.94234L7.87336 1.96123L7.8206 1.98486C8.3645 1.69424 8.93643 1.45945 9.52763 1.28409C9.97171 1.14473 10.2764 1.06363 10.6851 0.991187C11.0931 0.91963 11.5088 0.902947 11.9213 0.941582C12.2858 0.97229 12.5929 1.04788 12.8323 1.16835C13.074 1.2896 13.2472 1.45495 13.3377 1.66439C13.4307 1.87462 13.4377 2.12895 13.3488 2.42342ZM22.132 18.3245C22.132 18.3245 21.9761 18.7591 21.8343 19.0166C21.7036 19.2536 21.4469 19.593 21.4469 19.593L21.3745 19.6898L21.3052 19.7811C21.1477 19.9874 20.8871 20.2969 20.8871 20.2969L20.5359 20.6866C20.1753 21.0709 19.762 21.4409 19.3076 21.7889C18.8517 22.1385 18.3549 22.4645 17.8282 22.7598C17.2946 23.0583 16.7404 23.3185 16.1699 23.5385C15.4883 23.8019 14.7837 24.0017 14.0653 24.1353C13.7364 24.1946 13.4048 24.2377 13.0716 24.2645L12.4228 24.2928L12.2795 24.2944L11.5858 24.2739L10.8796 24.2086L10.6827 24.1826C10.2798 24.1272 9.88065 24.0473 9.48748 23.9432C9.38599 23.9174 9.28468 23.8909 9.18355 23.8637L8.80561 23.733L8.70246 23.6818C8.9686 23.7889 9.31662 23.8897 9.66228 23.944C10.0103 23.9975 10.3812 24.0282 10.7733 24.0338C11.1677 24.0393 11.5843 24.0196 12.0189 23.9731C12.4559 23.9259 12.911 23.8519 13.3818 23.7487C14.4621 23.5125 15.5314 23.148 16.5479 22.6842C17.5431 22.2317 18.4908 21.6812 19.3769 21.0409C20.2273 20.4236 20.9729 19.7481 21.5776 19.0473C21.78 18.8167 21.9658 18.572 22.1335 18.315C22.1414 18.3056 22.132 18.3245 22.132 18.3245Z" fill="#AEAEB2" fill-opacity="0.5"/>
<path d="M15.911 1.43916L16.6755 1.72891L17.4298 2.07693L17.6952 2.21551C17.7471 2.24307 17.7975 2.2722 17.8463 2.30212C17.9952 2.39267 18.1282 2.49424 18.2448 2.60605C18.4007 2.75565 18.5266 2.92415 18.6203 3.10997C18.7176 3.30323 18.7785 3.51276 18.7999 3.72806C18.8251 3.95404 18.8132 4.19813 18.7605 4.46032C18.6235 5.15085 18.2211 5.89807 17.6054 6.65553C16.9794 7.42637 16.137 8.20351 15.1378 8.93892C14.0653 9.72024 12.9227 10.4003 11.7245 10.9704C10.4796 11.5703 9.17997 12.0494 7.84352 12.401C6.66403 12.7065 5.59398 12.8624 4.6633 12.8837C3.7468 12.9049 2.97044 12.7963 2.36023 12.5735C1.76025 12.3538 1.32404 12.0262 1.06893 11.605C0.818543 11.1932 0.74453 10.6916 0.864211 10.1168L0.917753 9.87117L1.13586 9.05703L1.40829 8.26965L1.68859 7.6051L1.94528 7.06181L1.90276 7.17205C1.90591 7.16417 1.90591 7.16575 1.90276 7.17047V7.17205L1.89252 7.19488C1.64844 7.7366 1.59962 8.20902 1.72403 8.59956C1.85237 9.0027 2.16574 9.31765 2.64132 9.53024C3.12398 9.74598 3.77199 9.85464 4.55937 9.84125C5.35698 9.82708 6.29238 9.68614 7.3333 9.40583C8.3951 9.11461 9.4284 8.72801 10.4206 8.25075C11.3755 7.79686 12.2887 7.25991 13.1496 6.64608C13.9551 6.06815 14.6409 5.45872 15.1575 4.8548C15.6669 4.25875 16.011 3.67216 16.1456 3.12887C16.2129 2.8799 16.225 2.61924 16.181 2.36511C16.1398 2.14481 16.0428 1.93876 15.8992 1.76671C15.7574 1.59585 15.57 1.45176 15.3417 1.33444C15.1768 1.25214 15.0044 1.18595 14.8268 1.13681L14.5465 1.06122C14.6685 1.07854 14.7354 1.09114 14.8275 1.11476C14.9766 1.15603 15.1263 1.1954 15.2764 1.23287C15.5267 1.3053 15.911 1.43916 15.911 1.43916Z" fill="#AEAEB2" fill-opacity="0.5"/>
<path d="M21.0392 4.98083L21.6092 5.69734L22.1273 6.46503L22.3588 6.85793C22.4982 7.10821 22.595 7.37987 22.6454 7.66184C22.6722 7.8083 22.6872 7.96105 22.6895 8.11852C22.6935 8.27757 22.6832 8.44213 22.662 8.61221C22.5502 9.49249 22.114 10.4358 21.4132 11.3877C20.6983 12.3585 19.7117 13.331 18.5259 14.2427C17.2511 15.2134 15.8789 16.0491 14.4315 16.7364C12.9276 17.461 11.3504 18.0225 9.72695 18.4111C8.58447 18.6788 7.52308 18.8253 6.56721 18.8599C5.62078 18.8946 4.78065 18.8205 4.06099 18.6505C3.35235 18.482 2.76339 18.2221 2.3075 17.8812C1.85948 17.5466 1.53981 17.1348 1.36029 16.6576L1.17919 16.1364L0.931953 15.2451L0.758731 14.3475L0.722511 14.0939L0.672119 13.5884C0.738259 14.0703 0.939827 14.4923 1.27289 14.8435C1.64689 15.2372 2.18309 15.5411 2.86496 15.7411C3.55785 15.945 4.40035 16.0403 5.36882 16.0112C6.35068 15.9821 7.45852 15.8262 8.66635 15.5285C10.1979 15.1451 11.6866 14.6072 13.1095 13.9231C14.478 13.2738 15.7793 12.4913 16.9944 11.5869C18.1251 10.7381 19.0707 9.83658 19.7644 8.94133C20.4447 8.06183 20.877 7.19414 21.0045 6.38866C21.0408 6.16189 21.0518 5.94773 21.0384 5.7438C21.0268 5.54984 20.9911 5.35808 20.9321 5.17295C20.841 4.88859 20.6916 4.62633 20.4935 4.40289L20.9675 4.89815L21.0392 4.98083Z" fill="#AEAEB2" fill-opacity="0.5"/>
<path d="M23.7414 11.6656C23.8107 12.3845 23.8328 12.8042 23.717 13.5175C23.5391 14.6199 23.2517 15.2694 22.6336 16.167C22.0037 17.0812 21.1297 17.9859 20.0746 18.8268C18.946 19.7166 17.7214 20.4772 16.4235 21.0944C15.0743 21.7446 13.6544 22.2365 12.1922 22.5605C11.441 22.7235 10.7261 22.8267 10.0568 22.8739C9.39149 22.9196 8.77104 22.9109 8.20176 22.8503C7.68145 22.7995 7.16836 22.6912 6.67189 22.5275C6.2531 22.3909 5.85653 22.1938 5.49476 21.9425L4.79557 21.3992L4.21291 20.874C4.21291 20.874 3.81608 20.4866 3.58538 20.2173C3.42003 20.0252 3.18066 19.7071 3.18066 19.7071C3.45073 20.0142 3.78143 20.2803 4.19638 20.5C4.68298 20.7559 5.26406 20.9472 5.93097 21.0653C6.60733 21.185 7.36951 21.2283 8.20649 21.1881C9.13089 21.138 10.0492 21.0081 10.9513 20.8C12.5412 20.4359 14.0855 19.8951 15.5551 19.1874C16.9695 18.5161 18.3067 17.6929 19.5431 16.7324C20.6951 15.8293 21.6494 14.8616 22.3383 13.8884C23.0131 12.9357 23.4273 11.9861 23.5233 11.094C23.5333 10.9998 23.5399 10.9052 23.543 10.8105C23.5438 10.7244 23.5378 10.6383 23.5249 10.5531L23.5225 10.5334C23.5123 10.4389 23.6406 10.9389 23.6406 10.9389C23.6406 10.9389 23.7139 11.3798 23.7414 11.6656Z" fill="#AEAEB2" fill-opacity="0.5"/>
<path fill-rule="evenodd" clip-rule="evenodd" d="M11.6852 40.2537H10.7773V39.5317H10.7576C10.6568 39.7986 10.2639 40.3624 9.42775 40.3624C8.26007 40.3624 7.78528 39.323 7.78528 37.9774C7.78528 36.4129 8.38998 35.4334 9.47814 35.4334C10.2734 35.4334 10.6466 35.9184 10.7576 36.1956H10.7773V33.424H11.6844L11.6852 40.2537ZM9.7301 36.1263C9.02461 36.1263 8.79312 36.9089 8.79312 37.8979C8.79312 38.6112 8.8939 39.6695 9.73955 39.6695C10.4757 39.6695 10.7773 38.6695 10.7773 37.8884C10.7773 37.0664 10.5364 36.1263 9.7301 36.1263Z" fill="#AEAEB2" fill-opacity="0.5"/>
<path d="M0.306763 40.2537H1.21303V38.2546C1.21303 36.8097 1.89805 36.4035 2.71377 36.4035V35.4326C1.76735 35.4326 1.365 36.1161 1.2335 36.4916H1.21303V35.5428H0.306763V40.2537Z" fill="#AEAEB2" fill-opacity="0.5"/>
<path fill-rule="evenodd" clip-rule="evenodd" d="M6.86323 39.5112L6.89157 39.5018V40.2041L6.8459 40.2144C6.47662 40.2986 6.19632 40.3624 5.69318 40.3624C4.24205 40.3624 3.31531 39.5215 3.31531 37.6703C3.31531 35.6515 4.65621 35.4342 5.26958 35.4342C6.43883 35.4342 7.0018 36.2153 7.0018 37.3239V37.5522H4.22237C4.22237 38.4325 4.67589 39.6703 5.9853 39.6703C6.37899 39.6703 6.65457 39.5797 6.86323 39.5112ZM5.21997 36.1255C4.98366 36.1132 4.75178 36.193 4.57318 36.3483C4.39459 36.5035 4.28321 36.722 4.26252 36.9578H6.09632C6.09632 36.6609 5.91522 36.1255 5.21997 36.1255ZM15.8149 40.2537H16.722V33.4248H15.8149V36.1964H15.7944C15.6842 35.9192 15.3118 35.4342 14.5157 35.4342C13.4276 35.4342 12.8229 36.4137 12.8229 37.9782C12.8229 39.3246 13.2969 40.364 14.4646 40.364C15.3008 40.364 15.6944 39.7994 15.7944 39.5325H15.8141L15.8149 40.2537ZM13.8307 37.8979C13.8307 36.9089 14.0622 36.1263 14.7677 36.1263C15.5732 36.1263 15.8149 37.0664 15.8149 37.8884C15.8149 38.6703 15.5133 39.6703 14.7779 39.6703C13.9315 39.6703 13.8299 38.6113 13.8299 37.8987L13.8307 37.8979ZM19.9864 40.3624C21.4265 40.3624 22.1013 39.3829 22.1013 37.8979C22.1013 36.394 21.4265 35.4334 19.9864 35.4334C18.5353 35.4334 17.8605 36.394 17.8605 37.8979C17.8605 39.3829 18.5361 40.3624 19.9864 40.3624ZM18.8684 37.8979C18.8684 37.1357 18.9896 36.1263 19.9864 36.1263C20.9628 36.1263 21.0943 37.1357 21.0943 37.8979C21.0943 38.6506 20.9636 39.6695 19.9872 39.6695C18.9888 39.6695 18.8684 38.6506 18.8684 37.8979Z" fill="#AEAEB2" fill-opacity="0.5"/>
<path d="M25.7894 39.601C25.6587 39.6403 25.4665 39.6703 25.3067 39.6703C24.6012 39.6703 24.5406 39.175 24.5406 38.749V36.2357H25.8705V35.5428H24.5398V33.8807L23.6343 34.435V35.5436H22.7769V36.2365H23.6335V39.2151C23.6335 39.8592 23.9162 40.3631 25.0744 40.3631C25.3154 40.3631 25.5579 40.3443 25.7894 40.2939V39.601Z" fill="#AEAEB2" fill-opacity="0.5"/>
</g>
<defs>
<clipPath id="clip0_278_1913">
<rect width="25.9844" height="40.1562" fill="white" transform="translate(0.0078125 0.921875)"/>
</clipPath>
</defs>
</svg>
