<svg width="17" height="17" viewBox="0 0 17 17" fill="none" xmlns="http://www.w3.org/2000/svg">
<path fill-rule="evenodd" clip-rule="evenodd" d="M8.34375 3.00006C7.56176 2.99923 6.78863 3.16556 6.07617 3.4879C5.36371 3.81025 4.72837 4.28115 4.21275 4.86906L5.41675 6.07306C5.4518 6.10802 5.47569 6.15261 5.48537 6.20116C5.49505 6.24972 5.4901 6.30005 5.47114 6.34579C5.45218 6.39153 5.42007 6.4306 5.37888 6.45807C5.33768 6.48553 5.28926 6.50015 5.23975 6.50006H1.59375C1.52745 6.50006 1.46386 6.47372 1.41697 6.42684C1.37009 6.37995 1.34375 6.31636 1.34375 6.25006V2.60406C1.34366 2.55455 1.35828 2.50613 1.38574 2.46493C1.4132 2.42374 1.45228 2.39163 1.49802 2.37267C1.54376 2.35371 1.59409 2.34876 1.64265 2.35844C1.6912 2.36812 1.73579 2.39201 1.77075 2.42706L3.15075 3.80706C4.05131 2.81111 5.21928 2.09514 6.51542 1.74451C7.81155 1.39387 9.18118 1.42336 10.461 1.82946C11.7409 2.23556 12.8769 3.00113 13.7338 4.03492C14.5907 5.0687 15.1322 6.32709 15.2937 7.66006C15.3174 7.85765 15.2615 8.05652 15.1385 8.21292C15.0155 8.36933 14.8353 8.47045 14.6377 8.49406C14.4402 8.51766 14.2413 8.46181 14.0849 8.33879C13.9285 8.21576 13.8274 8.03565 13.8038 7.83806C13.6418 6.50387 12.997 5.27514 11.9911 4.38382C10.9851 3.49251 9.68774 3.00028 8.34375 3.00006ZM2.04875 8.50506C2.14659 8.49333 2.24578 8.501 2.34066 8.52763C2.43554 8.55425 2.52424 8.59931 2.60169 8.66024C2.67914 8.72116 2.74383 8.79674 2.79206 8.88268C2.84028 8.96861 2.8711 9.06321 2.88275 9.16106C3.0106 10.2148 3.44059 11.2091 4.12086 12.0239C4.80114 12.8388 5.70263 13.4394 6.71662 13.7534C7.73061 14.0673 8.81379 14.0812 9.83549 13.7934C10.8572 13.5055 11.7738 12.9282 12.4747 12.1311L11.2708 10.9271C11.2357 10.8921 11.2118 10.8475 11.2021 10.799C11.1924 10.7504 11.1974 10.7001 11.2164 10.6543C11.2353 10.6086 11.2674 10.5695 11.3086 10.542C11.3498 10.5146 11.3982 10.5 11.4478 10.5001H15.0938C15.1601 10.5001 15.2236 10.5264 15.2705 10.5733C15.3174 10.6202 15.3438 10.6838 15.3438 10.7501V14.3961C15.3438 14.4456 15.3292 14.494 15.3018 14.5352C15.2743 14.5764 15.2352 14.6085 15.1895 14.6275C15.1437 14.6464 15.0934 14.6514 15.0449 14.6417C14.9963 14.632 14.9517 14.6081 14.9167 14.5731L13.5367 13.1931C12.6362 14.189 11.4682 14.905 10.1721 15.2556C8.87595 15.6062 7.50632 15.5768 6.22647 15.1707C4.94663 14.7646 3.81056 13.999 2.9537 12.9652C2.09684 11.9314 1.55534 10.673 1.39375 9.34006C1.38202 9.24222 1.38969 9.14303 1.41632 9.04815C1.44294 8.95327 1.488 8.86457 1.54893 8.78712C1.60985 8.70967 1.68544 8.64498 1.77137 8.59675C1.8573 8.54853 1.9519 8.51771 2.04975 8.50606L2.04875 8.50506Z" fill="#6E7681"/>
</svg>
