<svg width="9" height="15" viewBox="0 0 9 15" fill="none" xmlns="http://www.w3.org/2000/svg">
<path fill-rule="evenodd" clip-rule="evenodd" d="M0.938823 14.28C1.07945 14.4204 1.27007 14.4993 1.46882 14.4993C1.66757 14.4993 1.8582 14.4204 1.99882 14.28L8.24882 8.02997C8.38927 7.88934 8.46816 7.69872 8.46816 7.49997C8.46816 7.30122 8.38927 7.11059 8.24882 6.96997L1.99882 0.719968C1.85665 0.587488 1.6686 0.515365 1.4743 0.518794C1.28 0.522222 1.09461 0.600934 0.957201 0.738347C0.819788 0.87576 0.741075 1.06114 0.737647 1.25545C0.734219 1.44975 0.806343 1.63779 0.938823 1.77997L6.65882 7.49997L0.938823 13.22C0.798372 13.3606 0.719482 13.5512 0.719482 13.75C0.719482 13.9487 0.798372 14.1393 0.938823 14.28Z" fill="#8B949E"/>
</svg>
