<svg width="16" height="25" viewBox="0 0 16 25" fill="none" xmlns="http://www.w3.org/2000/svg">
    <g clip-path="url(#clip0_278_1947)">
        <path d="M7.99957 1.71792C9.66256 1.72425 11.2556 2.38598 12.4316 3.55891C13.6076 4.73183 14.2712 6.32086 14.2778 7.97973V17.0203C14.2794 18.2588 13.9123 19.4699 13.223 20.5001C12.5337 21.5302 11.5533 22.3329 10.406 22.8065C9.25876 23.2801 7.99635 23.4032 6.77888 23.1601C5.56141 22.9171 4.44371 22.3189 3.56752 21.4413C2.98217 20.8627 2.51767 20.1741 2.20092 19.4152C1.88417 18.6563 1.72146 17.8423 1.72219 17.0203V7.97973C1.72831 6.32087 2.39165 4.73171 3.56756 3.55871C4.74347 2.38571 6.33659 1.72403 7.99957 1.71792ZM7.99957 0C3.60024 0 0 3.59131 0 7.97973V17.0203C0 21.4096 3.60024 25 7.99957 25C12.3989 25 16 21.4096 16 17.0203V7.97973C16 3.59131 12.3998 0 7.99957 0Z"
              fill="white" fill-opacity="0.5"/>
        <path d="M7.99956 12.308C7.72551 12.308 7.46268 12.1994 7.2689 12.0061C7.07511 11.8128 6.96625 11.5507 6.96625 11.2773V6.75487C6.96625 6.4815 7.07511 6.21932 7.2689 6.02602C7.46268 5.83272 7.72551 5.72412 7.99956 5.72412C8.27361 5.72412 8.53644 5.83272 8.73022 6.02602C8.92401 6.21932 9.03287 6.4815 9.03287 6.75487V11.2773C9.03287 11.5507 8.92401 11.8128 8.73022 12.0061C8.53644 12.1994 8.27361 12.308 7.99956 12.308Z"
              fill="white" fill-opacity="0.5"/>
    </g>
    <defs>
        <clipPath id="clip0_278_1947">
            <rect width="16" height="25" fill="white"/>
        </clipPath>
    </defs>
</svg>
