<svg width="50" height="33" viewBox="0 0 50 33" fill="none" xmlns="http://www.w3.org/2000/svg">
    <g clip-path="url(#clip0_278_1924)">
        <path d="M1.30457 1.15881H15.2292V28.7798H12.2185C12.2665 28.7145 12.3035 28.6468 12.3279 28.5783L12.3468 28.5389V23.4C12.3468 22.7544 11.2627 22.2017 9.61717 21.8844C9.06604 21.7585 8.62593 21.69 8.55113 21.6782C8.74403 21.6506 12.1358 21.142 12.1358 19.7862C12.1358 18.5375 8.21179 18.221 8.21179 18.221C8.21179 18.221 12.0823 17.5596 12.0823 16.4054C12.0823 15.4905 7.96063 14.8119 7.96063 14.8119C7.96063 14.8119 11.9847 14.2363 11.9847 12.9853C11.9847 11.92 8.25273 11.3531 8.25273 11.3531C8.25273 11.3531 11.8768 10.9618 11.8768 9.60369C11.8768 8.55969 8.05826 7.89204 8.05826 7.89204C8.05826 7.89204 11.8429 7.41177 11.8429 6.21739C11.8429 4.664 6.84105 4.30419 6.84105 4.30419L6.0616 5.30252C6.0616 5.30252 9.48411 5.62532 9.48411 6.18039C9.48411 6.68192 2.66507 7.18581 1.30457 7.28265V1.1596V1.15881Z"
              fill="#AEAEB2" fill-opacity="0.5"/>
        <path d="M9.3731 19.8209C9.3731 20.494 2.55091 21.0955 1.30457 21.1908V19.0075C1.49702 19.0205 1.68968 19.0302 1.88246 19.0367C2.13756 19.0477 2.43753 19.0587 2.769 19.0705H2.77136C5.22624 19.1611 9.3731 19.3138 9.3731 19.8209ZM9.3731 16.5149C9.3731 17.1746 2.60681 17.7132 1.30457 17.8077V15.4504C1.61713 15.478 2.10607 15.511 2.69341 15.5512C5.1672 15.7197 9.3731 16.0062 9.3731 16.5149ZM9.43924 13.0538C9.43924 13.6868 2.76585 14.1387 1.30457 14.2308V12.1027C1.86514 12.179 2.89261 12.2412 4.03266 12.3097C6.47652 12.457 9.43924 12.6349 9.43924 13.0538ZM9.3731 9.59819C9.3731 10.2517 2.99575 10.7162 1.30457 10.8288V8.49829C1.54956 8.51955 1.79468 8.53923 2.03993 8.55734L2.65877 8.60143C5.11208 8.77779 9.3731 9.08328 9.3731 9.59819Z"
              fill="#AEAEB2" fill-opacity="0.5"/>
        <path fill-rule="evenodd" clip-rule="evenodd"
              d="M20.4461 23.826H20.0973L17.8534 28.8413H18.2258L18.8391 27.4477H21.6877L22.3002 28.8413H22.6907L20.4461 23.826ZM20.2705 24.2283L21.5381 27.1115H18.995L20.2705 24.2283Z"
              fill="#AEAEB2" fill-opacity="0.5"/>
        <path d="M22.9466 23.8598H22.5482L24.2945 28.8782H24.5866L25.9991 24.5503L27.4108 28.8782H27.7005L29.4491 23.8598H29.076L27.5611 28.294L26.1518 23.8456H25.8739L24.4614 28.2909L22.9466 23.8598Z"
              fill="#AEAEB2" fill-opacity="0.5"/>
        <path fill-rule="evenodd" clip-rule="evenodd"
              d="M31.8946 23.826H31.5489L29.3051 28.8413H29.6775L30.29 27.4477H33.137L33.7495 28.8413H34.1392L31.8946 23.826ZM31.7166 24.2283L32.9842 27.1115H30.4412L31.7166 24.2283ZM36.8768 23.8598H34.8518V28.8405H35.2084V26.7777H36.7878L38.3223 28.8436H38.7766L37.1862 26.7147C37.9995 26.599 38.5979 26.1242 38.5979 25.2896V25.2755C38.6 24.9314 38.4694 24.5998 38.2334 24.3496C37.9436 24.0527 37.4673 23.8598 36.8768 23.8598ZM38.2389 25.3046C38.2389 26.0234 37.6429 26.4439 36.8351 26.4439H35.2116V24.2023H36.8547C37.7287 24.2023 38.2389 24.6196 38.2389 25.2904V25.3046ZM41.2661 23.8598H39.6592V28.8405H41.2654C42.781 28.8405 43.8281 27.7532 43.8281 26.3486V26.3344C43.8281 24.933 42.781 23.8598 41.2661 23.8598ZM43.4549 26.3659C43.4549 27.5516 42.6085 28.5011 41.2661 28.5011V28.498H40.0182V24.2023H41.2661C42.6085 24.2023 43.4549 25.1692 43.4549 26.3517V26.3659Z"
              fill="#AEAEB2" fill-opacity="0.5"/>
        <path d="M44.7304 27.8366L44.4966 28.1154C45.0761 28.6507 45.6666 28.9121 46.4405 28.9121C47.368 28.9121 48.0364 28.3602 48.0364 27.5548V27.5398C48.0364 26.8123 47.568 26.4006 46.4539 26.1651C45.3099 25.9234 45.0477 25.6038 45.0477 25.0771V25.0629C45.0477 24.5417 45.5154 24.122 46.2256 24.122C46.7613 24.1132 47.2789 24.3157 47.6664 24.6858L47.8916 24.3929C47.4034 23.9898 46.9413 23.7882 46.2398 23.7882C45.343 23.7882 44.6887 24.3582 44.6887 25.0975V25.1117C44.6887 25.8652 45.1564 26.2714 46.3153 26.5131C47.4097 26.7399 47.6798 27.0485 47.6798 27.5745V27.5894C47.6798 28.1587 47.1814 28.5791 46.4571 28.5791C45.75 28.5791 45.2603 28.3429 44.7304 27.8366ZM19.0872 8.79591H17.4047V8.45264H21.1256V8.79512H19.4431V13.4364H19.0864V8.79512L19.0872 8.79591ZM21.9027 8.45264H22.2617V10.7603H25.348V8.45342H25.7062V13.4364H25.3472V11.0996H22.2609V13.4364H21.9019L21.9027 8.45264ZM26.9683 8.45264H30.3964V8.79512H27.3242V10.7516H30.0877V11.0941H27.3242V13.0939H30.4326V13.4364H26.9683V8.45264ZM22.553 15.9417L22.5483 15.9275H21.32L20.8634 17.703V17.7061C20.5737 18.843 20.5178 19.0619 20.3123 20.2004C20.1477 18.9548 20.0839 18.6556 19.4856 15.9275H18.1007L19.51 21.6734H20.9413L21.4767 19.7366C21.6696 19.1272 21.8271 18.5052 21.9491 17.8762C22.1168 18.6816 22.1334 18.7186 22.4318 19.7744C22.5687 20.2531 22.6971 20.7349 22.8278 21.2176L22.9522 21.6742H24.3835L25.7929 15.9252H24.4142L24.0521 17.677C23.8017 18.8454 23.7623 19.0406 23.5954 20.1807C23.4301 19.1162 23.3726 18.906 23.0994 17.9226L23.0608 17.7809C22.8845 17.1676 22.7183 16.5542 22.553 15.9417Z"
              fill="#AEAEB2" fill-opacity="0.5"/>
        <path fill-rule="evenodd" clip-rule="evenodd"
              d="M30.8726 20.9428C31.1482 20.6782 31.3316 20.405 31.5182 20.1169L30.3293 19.4925C30.1349 19.8838 29.8396 20.4649 28.9759 20.4649C28.1264 20.4649 27.7477 19.7799 27.7556 19.0902H31.5796C31.5576 18.4658 31.5158 17.3864 30.8198 16.6125C30.1349 15.8503 29.2129 15.8188 28.8948 15.8188C26.7848 15.8188 26.1494 17.5336 26.1494 18.8682C26.1494 20.6782 27.2658 21.7254 28.8531 21.7254C29.6023 21.7364 30.3264 21.4557 30.8726 20.9428ZM29.6522 17.2919C29.8325 17.5124 29.9372 17.7864 29.9506 18.0745H27.7674L27.7689 18.0675C27.8185 17.8368 27.8721 17.5856 28.0847 17.3431C28.1824 17.2339 28.3013 17.1457 28.4342 17.0837C28.567 17.0217 28.711 16.9873 28.8575 16.9825C29.004 16.9777 29.15 17.0027 29.2866 17.0559C29.4231 17.109 29.5475 17.1894 29.6522 17.2919ZM34.7211 15.9251H32.5716V21.6703H34.9187C35.5564 21.6703 36.0052 21.6451 36.4225 21.4577C36.693 21.3435 36.9235 21.1514 37.0846 20.9058C37.2488 20.6569 37.3381 20.3662 37.3421 20.0681C37.3421 19.7397 37.2334 19.4232 37.035 19.2051C36.7327 18.8501 36.2918 18.7753 35.954 18.7178L35.9414 18.7162C36.2422 18.6532 36.776 18.5375 37.0279 17.9501C37.0633 17.8693 37.0887 17.7844 37.1035 17.6974C37.1193 17.6155 37.1303 17.5163 37.1303 17.3982C37.1375 17.0981 37.0469 16.8038 36.872 16.5597C36.7004 16.32 36.453 16.1453 36.1697 16.0637C35.8328 15.9511 35.306 15.9251 34.7211 15.9251ZM33.8944 18.195V17.0006H35.036C35.3037 17.0006 35.7682 17.0242 35.7682 17.5762C35.7682 18.1722 35.2564 18.1863 34.9415 18.195H33.8944ZM33.8944 20.6294V19.2358H35.0974L35.1068 19.2366C35.3942 19.2453 35.9328 19.2618 35.9328 19.9444C35.9328 20.6034 35.3281 20.6208 34.8636 20.6294H33.8944ZM40.6284 15.9251H38.4782V21.6703H40.826C41.4637 21.6703 41.9125 21.6451 42.3298 21.4577C42.6007 21.3394 42.8315 21.1452 42.9946 20.8987C43.1576 20.6521 43.2458 20.3636 43.2486 20.0681C43.2486 19.7397 43.1376 19.4232 42.9423 19.2051C42.64 18.8501 42.1991 18.7753 41.8605 18.7178L41.8479 18.7162C42.1487 18.6532 42.6833 18.5375 42.9345 17.9501C42.9589 17.8958 43.0368 17.7092 43.0368 17.3982C43.044 17.0981 42.9534 16.8038 42.7786 16.5597C42.607 16.32 42.3596 16.1452 42.0763 16.0637C41.7369 15.9511 41.211 15.9251 40.6284 15.9251ZM39.8017 18.195V17.0006H40.9433C41.2102 17.0006 41.6755 17.0242 41.6755 17.5762C41.6755 18.1722 41.163 18.1863 40.8488 18.195H39.8017ZM39.8017 20.6294V19.2358H41.0039C41.2882 19.2453 41.8393 19.254 41.8393 19.9444C41.8393 20.6034 41.233 20.6208 40.7701 20.6294H39.8017Z"
              fill="#AEAEB2" fill-opacity="0.5"/>
        <path d="M44.817 15.9251H43.2156L45.3044 18.9949V21.6702H46.6743V18.9524L48.7765 15.9259H47.1955L46.2428 17.4651C46.1956 17.54 46.1504 17.6161 46.1074 17.6934C46.0728 17.758 46.0523 17.8084 46.0145 17.8966L44.817 15.9259V15.9251Z"
              fill="#AEAEB2" fill-opacity="0.5"/>
    </g>
    <defs>
        <clipPath id="clip0_278_1924">
            <rect width="48.0312" height="28.3438" fill="white" transform="translate(0.984375 0.828125)"/>
        </clipPath>
    </defs>
</svg>
