<svg width="32" height="32" viewBox="0 0 32 32" fill="none" xmlns="http://www.w3.org/2000/svg">
    <path d="M26.8902 4.83008C23.9268 1.87695 19.9756 0.236328 15.8049 0.236328C7.13414 0.236328 0.109754 7.23633 0.109754 15.877C0.109754 18.6113 0.878049 21.3457 2.19512 23.6426L0 31.7363L8.34147 29.5488C10.6463 30.752 13.1707 31.4082 15.8049 31.4082C24.4756 31.4082 31.5 24.4082 31.5 15.7676C31.3902 11.7207 29.8537 7.7832 26.8902 4.83008ZM23.378 21.4551C23.0488 22.3301 21.5122 23.2051 20.7439 23.3145C20.0854 23.4238 19.2073 23.4238 18.3293 23.2051C17.7805 22.9863 17.0122 22.7676 16.1341 22.3301C12.1829 20.6895 9.65854 16.752 9.43903 16.4238C9.21951 16.2051 7.79269 14.3457 7.79269 12.377C7.79269 10.4082 8.78049 9.5332 9.10976 9.0957C9.43902 8.6582 9.87805 8.6582 10.2073 8.6582C10.4268 8.6582 10.7561 8.6582 10.9756 8.6582C11.1951 8.6582 11.5244 8.54883 11.8537 9.31445C12.1829 10.0801 12.9512 12.0488 13.061 12.1582C13.1707 12.377 13.1707 12.5957 13.061 12.8145C12.9512 13.0332 12.8415 13.252 12.6219 13.4707C12.4024 13.6895 12.1829 14.0176 12.0732 14.127C11.8537 14.3457 11.6341 14.5645 11.8537 14.8926C12.0732 15.3301 12.8415 16.5332 14.0488 17.627C15.5854 18.9395 16.7927 19.377 17.2317 19.5957C17.6707 19.8145 17.8902 19.7051 18.1098 19.4863C18.3293 19.2676 19.0976 18.3926 19.3171 17.9551C19.5366 17.5176 19.8659 17.627 20.1951 17.7363C20.5244 17.8457 22.5 18.8301 22.8293 19.0488C23.2683 19.2676 23.4878 19.377 23.5976 19.4863C23.7073 19.8145 23.7073 20.5801 23.378 21.4551Z"
          fill="white"/>
</svg>
