<svg width="1024" height="1024" viewBox="0 0 1024 1024" fill="none" xmlns="http://www.w3.org/2000/svg">
<g clip-path="url(#clip0_510_1410)">
<path d="M512.051 1024.1C794.85 1024.1 1024.1 794.85 1024.1 512.051C1024.1 229.253 794.85 0 512.051 0C229.253 0 0 229.253 0 512.051C0 794.85 229.253 1024.1 512.051 1024.1Z" fill="black"/>
<path d="M260.142 662.189V371.587H371.587V403.487C395.832 378.882 428.551 364.455 463.069 363.149V466.568C454.773 464.413 446.221 463.409 437.652 463.583C414.087 463.583 383.833 469.655 371.381 484.164V662.189H260.142Z" fill="white"/>
<path d="M484.267 512.36C484.267 425.612 550.538 355.74 647.062 355.74C735.045 355.74 802.447 418.82 802.447 524.091V547.039H599.417C605.591 566.179 627.304 584.805 663.835 584.805C680.506 584.805 717.654 576.675 732.472 564.224L778.368 632.964C748.628 658.278 695.324 670.112 650.766 670.112C557.329 669.598 484.267 610.737 484.267 512.36ZM647.062 440.327C635.961 439.454 624.917 442.601 615.943 449.194C606.97 455.787 600.666 465.387 598.182 476.241H696.559C693.472 463.069 682.975 440.533 647.062 440.533V440.327Z" fill="white"/>
</g>
<defs>
<clipPath id="clip0_510_1410">
<rect width="1024" height="1024" fill="white"/>
</clipPath>
</defs>
</svg>
